<svg width="106" height="31" viewBox="0 0 106 31" fill="none" xmlns="http://www.w3.org/2000/svg">
<path d="M11.592 0.0239983C13.384 0.0239983 15 0.311998 16.44 0.887999C17.8907 1.464 19.128 2.28 20.152 3.336C21.176 4.38133 21.96 5.62933 22.504 7.08C23.0587 8.53067 23.336 10.1413 23.336 11.912C23.336 13.576 23.064 15.1173 22.52 16.536C21.976 17.9547 21.1973 19.192 20.184 20.248C19.1813 21.304 17.9653 22.1253 16.536 22.712C15.1173 23.2987 13.528 23.592 11.768 23.592C9.976 23.592 8.35467 23.3093 6.904 22.744C5.464 22.168 4.232 21.352 3.208 20.296C2.19467 19.24 1.416 17.9867 0.872 16.536C0.328 15.0747 0.056 13.4533 0.056 11.672C0.056 10.0187 0.322667 8.48267 0.856 7.064C1.4 5.64533 2.17333 4.41333 3.176 3.368C4.18933 2.312 5.40533 1.49067 6.824 0.903999C8.25333 0.317332 9.84267 0.0239983 11.592 0.0239983ZM17.048 15.624C17.048 14.184 16.9253 12.7867 16.68 11.432C16.4347 10.0773 16.0933 8.81867 15.656 7.656C15.2293 6.49333 14.728 5.47467 14.152 4.6C13.5867 3.72533 12.9787 3.04266 12.328 2.552C11.688 2.06133 11.0267 1.816 10.344 1.816C9.53333 1.816 8.83467 2.056 8.248 2.536C7.66133 3.00533 7.208 3.69867 6.888 4.616C6.57867 5.52267 6.424 6.63733 6.424 7.96C6.424 9.4 6.54667 10.8027 6.792 12.168C7.03733 13.5227 7.37333 14.7867 7.8 15.96C8.23733 17.1227 8.73867 18.1413 9.304 19.016C9.86933 19.8907 10.4773 20.5787 11.128 21.08C11.7787 21.5707 12.44 21.816 13.112 21.816C13.944 21.816 14.648 21.576 15.224 21.096C15.8107 20.616 16.2587 19.9173 16.568 19C16.888 18.072 17.048 16.9467 17.048 15.624ZM12.104 17.464C12.0187 17.1333 12.008 16.8507 12.072 16.616C12.1467 16.3707 12.328 16.2107 12.616 16.136C12.9253 16.0507 13.1707 16.0933 13.352 16.264C13.544 16.424 13.6827 16.6587 13.768 16.968C14.184 18.344 14.632 19.4853 15.112 20.392C15.592 21.288 16.1093 21.9973 16.664 22.52C17.2293 23.032 17.848 23.3947 18.52 23.608C19.2027 23.8213 19.96 23.928 20.792 23.928C21.3573 23.928 21.784 23.8747 22.072 23.768C22.3707 23.6613 22.616 23.544 22.808 23.416C23 23.2987 23.2133 23.2187 23.448 23.176C23.6187 23.1547 23.7467 23.1867 23.832 23.272C23.928 23.3573 23.976 23.4907 23.976 23.672C23.9867 23.7893 23.9653 23.9227 23.912 24.072C23.8693 24.232 23.8053 24.4133 23.72 24.616L22.856 26.472C22.696 26.824 22.456 27.08 22.136 27.24C21.8267 27.4107 21.3787 27.496 20.792 27.496C19.8533 27.496 18.9627 27.3093 18.12 26.936C17.288 26.5733 16.504 25.992 15.768 25.192C15.032 24.392 14.3547 23.3573 13.736 22.088C13.128 20.8187 12.584 19.2773 12.104 17.464ZM32.0223 14.424C32.0223 12.856 32.2356 11.5547 32.6623 10.52C33.0996 9.47467 33.6703 8.696 34.3743 8.184C35.0783 7.672 35.8409 7.416 36.6623 7.416C37.7076 7.416 38.5076 7.72533 39.0623 8.344C39.6276 8.96267 39.9103 9.87467 39.9103 11.08C39.9103 12.232 39.6703 13.0853 39.1903 13.64C38.7209 14.1947 38.1129 14.472 37.3663 14.472C36.6089 14.472 36.0383 14.2747 35.6543 13.88C35.2703 13.4853 35.0729 12.9307 35.0623 12.216V11.592C35.0516 11.2933 34.9823 11.0693 34.8543 10.92C34.7263 10.76 34.5236 10.68 34.2463 10.68C33.9476 10.68 33.6703 10.808 33.4143 11.064C33.1689 11.3093 32.9663 11.6987 32.8063 12.232C32.6569 12.7547 32.5823 13.4427 32.5823 14.296L32.0223 14.424ZM32.2623 8.584L32.5823 12.248V20.248C32.5823 20.5573 32.6356 20.7867 32.7423 20.936C32.8489 21.0747 33.0676 21.176 33.3983 21.24L34.7263 21.48C34.9823 21.5227 35.1689 21.608 35.2863 21.736C35.4143 21.8533 35.4783 22.024 35.4783 22.248C35.4783 22.4827 35.3983 22.6693 35.2383 22.808C35.0783 22.936 34.8383 23 34.5183 23H26.3903C26.0596 23 25.8143 22.936 25.6543 22.808C25.5049 22.6693 25.4303 22.488 25.4303 22.264C25.4303 22.0933 25.4783 21.9493 25.5743 21.832C25.6703 21.704 25.8196 21.5973 26.0223 21.512L26.5503 21.368C26.7209 21.304 26.8436 21.192 26.9183 21.032C26.9929 20.872 27.0303 20.6213 27.0303 20.28V11.592C27.0303 11.3147 26.9876 11.1173 26.9023 11C26.8276 10.872 26.7049 10.7867 26.5343 10.744L25.8943 10.664C25.7023 10.6107 25.5636 10.5307 25.4783 10.424C25.3929 10.3173 25.3503 10.184 25.3503 10.024C25.3503 9.832 25.4089 9.67733 25.5263 9.56C25.6436 9.432 25.8516 9.31467 26.1503 9.208L29.5583 7.992C30.1449 7.768 30.5663 7.624 30.8223 7.56C31.0889 7.496 31.2969 7.464 31.4463 7.464C31.6809 7.464 31.8623 7.54933 31.9903 7.72C32.1183 7.89067 32.2089 8.17867 32.2623 8.584ZM48.4885 8.568V20.264C48.4885 20.616 48.5258 20.872 48.6005 21.032C48.6752 21.192 48.7978 21.304 48.9685 21.368L49.4805 21.512C49.6938 21.5973 49.8432 21.704 49.9285 21.832C50.0245 21.9493 50.0725 22.0933 50.0725 22.264C50.0725 22.488 49.9978 22.6693 49.8485 22.808C49.6992 22.936 49.4592 23 49.1285 23H42.2805C41.9605 23 41.7205 22.936 41.5605 22.808C41.4112 22.6693 41.3365 22.488 41.3365 22.264C41.3365 22.0933 41.3845 21.9493 41.4805 21.832C41.5765 21.704 41.7258 21.6027 41.9285 21.528L42.4565 21.368C42.6272 21.2933 42.7498 21.1813 42.8245 21.032C42.8992 20.872 42.9365 20.616 42.9365 20.264V11.56C42.9365 11.2827 42.8938 11.0853 42.8085 10.968C42.7338 10.84 42.6112 10.7547 42.4405 10.712L41.8165 10.648C41.6245 10.5947 41.4858 10.5147 41.4005 10.408C41.3152 10.3013 41.2725 10.1627 41.2725 9.992C41.2725 9.8 41.3258 9.64533 41.4325 9.528C41.5392 9.41067 41.7472 9.29333 42.0565 9.176L45.5445 7.912C46.0032 7.74133 46.3605 7.624 46.6165 7.56C46.8832 7.48533 47.1178 7.448 47.3205 7.448C47.7045 7.448 47.9925 7.55467 48.1845 7.768C48.3872 7.97067 48.4885 8.23733 48.4885 8.568ZM45.3845 5.576C44.3818 5.576 43.5818 5.32533 42.9845 4.824C42.3978 4.32267 42.1045 3.656 42.1045 2.824C42.1045 1.992 42.3978 1.33066 42.9845 0.839998C43.5818 0.349332 44.3818 0.103998 45.3845 0.103998C46.3978 0.103998 47.2032 0.354665 47.8005 0.855999C48.3978 1.34667 48.6965 2.00267 48.6965 2.824C48.6965 3.656 48.3978 4.32267 47.8005 4.824C47.2032 5.32533 46.3978 5.576 45.3845 5.576ZM58.942 21.816C59.6033 21.816 60.11 21.6613 60.462 21.352C60.814 21.032 60.99 20.632 60.99 20.152C60.99 19.8533 60.926 19.5813 60.798 19.336C60.67 19.08 60.414 18.8453 60.03 18.632C59.646 18.4187 59.0753 18.232 58.318 18.072C56.558 17.7307 55.2033 17.2933 54.254 16.76C53.3047 16.2267 52.654 15.608 52.302 14.904C51.95 14.2 51.774 13.4107 51.774 12.536C51.774 10.9467 52.3287 9.69867 53.438 8.792C54.5473 7.87467 56.158 7.416 58.27 7.416C59.0273 7.416 59.6353 7.48 60.094 7.608C60.5633 7.72533 60.9367 7.848 61.214 7.976C61.502 8.104 61.7527 8.168 61.966 8.168C62.2007 8.168 62.3927 8.104 62.542 7.976C62.702 7.848 62.8567 7.72533 63.006 7.608C63.166 7.48 63.3687 7.416 63.614 7.416C63.7847 7.416 63.9393 7.47467 64.078 7.592C64.2273 7.70933 64.3447 7.92267 64.43 8.232L65.358 11.464C65.4967 11.8907 65.5393 12.232 65.486 12.488C65.4327 12.744 65.2727 12.9253 65.006 13.032C64.7393 13.128 64.51 13.128 64.318 13.032C64.126 12.936 63.934 12.7547 63.742 12.488C63.2407 11.656 62.7127 10.984 62.158 10.472C61.614 9.96 61.0433 9.58667 60.446 9.352C59.8593 9.11733 59.246 9 58.606 9C57.806 9 57.2033 9.16533 56.798 9.496C56.3927 9.816 56.19 10.248 56.19 10.792C56.19 11.1227 56.2753 11.4213 56.446 11.688C56.6167 11.944 56.9473 12.184 57.438 12.408C57.9287 12.6213 58.6433 12.8293 59.582 13.032C61.022 13.3307 62.1633 13.7307 63.006 14.232C63.8487 14.7227 64.4513 15.32 64.814 16.024C65.1873 16.728 65.374 17.5493 65.374 18.488C65.374 19.4693 65.1127 20.3333 64.59 21.08C64.078 21.816 63.3687 22.392 62.462 22.808C61.5553 23.2133 60.5207 23.416 59.358 23.416C58.6327 23.416 58.0513 23.3467 57.614 23.208C57.1767 23.0693 56.814 22.9307 56.526 22.792C56.2487 22.6533 55.9927 22.584 55.758 22.584C55.5127 22.584 55.294 22.6533 55.102 22.792C54.9207 22.9307 54.7393 23.064 54.558 23.192C54.3767 23.3307 54.1793 23.4 53.966 23.4C53.7847 23.4 53.63 23.3307 53.502 23.192C53.374 23.064 53.278 22.84 53.214 22.52L52.654 19.48C52.5687 19.0427 52.558 18.712 52.622 18.488C52.686 18.264 52.8353 18.104 53.07 18.008C53.326 17.9013 53.55 17.9067 53.742 18.024C53.9447 18.1413 54.1473 18.3547 54.35 18.664C55.0753 19.8053 55.8273 20.616 56.606 21.096C57.3847 21.576 58.1633 21.816 58.942 21.816ZM74.59 8.568V10.216L74.814 10.664V27.72C74.814 28.072 74.8513 28.328 74.926 28.488C75.0113 28.648 75.1393 28.7547 75.31 28.808L75.934 28.984C76.1367 29.0587 76.286 29.1547 76.382 29.272C76.478 29.4 76.526 29.5493 76.526 29.72C76.526 29.9547 76.446 30.136 76.286 30.264C76.1367 30.392 75.8967 30.456 75.566 30.456H68.622C68.2913 30.456 68.0513 30.392 67.902 30.264C67.7527 30.136 67.678 29.9547 67.678 29.72C67.678 29.5493 67.726 29.4 67.822 29.272C67.918 29.1547 68.0673 29.0587 68.27 28.984L68.782 28.824C68.9527 28.76 69.0753 28.648 69.15 28.488C69.2247 28.328 69.262 28.072 69.262 27.72V11.56C69.262 11.272 69.2193 11.0693 69.134 10.952C69.0593 10.8347 68.9367 10.7547 68.766 10.712L68.142 10.632C67.95 10.5787 67.8113 10.4987 67.726 10.392C67.6407 10.2853 67.598 10.152 67.598 9.992C67.598 9.78933 67.6513 9.63467 67.758 9.528C67.8753 9.42133 68.0833 9.304 68.382 9.176L71.646 7.912C72.0727 7.74133 72.4193 7.624 72.686 7.56C72.9527 7.48533 73.1927 7.448 73.406 7.448C73.8113 7.448 74.11 7.55467 74.302 7.768C74.494 7.97067 74.59 8.23733 74.59 8.568ZM73.838 12.616L72.99 11.704C73.854 10.3493 74.8247 9.29867 75.902 8.552C76.9793 7.79467 78.1953 7.416 79.55 7.416C80.8087 7.416 81.9287 7.736 82.91 8.376C83.902 9.00533 84.6807 9.88533 85.246 11.016C85.8113 12.1467 86.094 13.4587 86.094 14.952C86.094 16.6587 85.7527 18.1467 85.07 19.416C84.3873 20.6853 83.454 21.672 82.27 22.376C81.0967 23.0693 79.7687 23.416 78.286 23.416C77.038 23.416 75.9447 23.144 75.006 22.6C74.078 22.0453 73.294 21.2293 72.654 20.152L73.95 19.192C74.43 19.9493 74.9313 20.504 75.454 20.856C75.9873 21.208 76.5687 21.384 77.198 21.384C77.806 21.384 78.35 21.1867 78.83 20.792C79.31 20.3973 79.6833 19.768 79.95 18.904C80.2167 18.04 80.35 16.9147 80.35 15.528C80.35 14.2373 80.2167 13.1867 79.95 12.376C79.6833 11.5653 79.3207 10.968 78.862 10.584C78.4033 10.2 77.8753 10.008 77.278 10.008C76.6273 10.008 76.014 10.2213 75.438 10.648C74.8727 11.064 74.3393 11.72 73.838 12.616ZM98.5893 20.088L95.6133 25.368L88.7973 10.696C88.6053 10.2587 88.4079 9.94933 88.2053 9.768C88.0026 9.576 87.7253 9.42133 87.3733 9.304C87.1706 9.22933 87.0266 9.13333 86.9413 9.016C86.8666 8.89867 86.8293 8.74933 86.8293 8.568C86.8293 8.33333 86.9093 8.152 87.0693 8.024C87.2293 7.896 87.4533 7.832 87.7413 7.832H95.6453C95.9226 7.832 96.1413 7.896 96.3013 8.024C96.4613 8.152 96.5413 8.33333 96.5413 8.568C96.5413 8.74933 96.4879 8.89867 96.3813 9.016C96.2853 9.13333 96.1199 9.224 95.8853 9.288L95.3253 9.416C94.8879 9.52267 94.6319 9.70933 94.5573 9.976C94.4826 10.2427 94.5786 10.696 94.8453 11.336L98.5893 20.088ZM95.3253 25.016L96.1093 23.128L96.7653 21.848L100.845 11.592C101.101 10.952 101.187 10.472 101.101 10.152C101.016 9.832 100.744 9.61333 100.285 9.496L99.6773 9.336C99.4426 9.26133 99.2719 9.16 99.1653 9.032C99.0586 8.904 99.0053 8.74933 99.0053 8.568C99.0053 8.33333 99.0853 8.152 99.2453 8.024C99.4053 7.896 99.6239 7.832 99.9013 7.832H104.365C104.643 7.832 104.861 7.896 105.021 8.024C105.192 8.152 105.277 8.33333 105.277 8.568C105.277 8.728 105.229 8.86667 105.133 8.984C105.037 9.10133 104.877 9.21333 104.653 9.32C104.195 9.49067 103.832 9.71467 103.565 9.992C103.299 10.2693 103.037 10.728 102.781 11.368L97.4533 24.536C96.8026 26.1253 96.2106 27.3573 95.6773 28.232C95.1439 29.1067 94.5626 29.7147 93.9333 30.056C93.3146 30.3973 92.5413 30.568 91.6133 30.568C90.2693 30.568 89.2026 30.2053 88.4133 29.48C87.6239 28.7547 87.2293 27.8587 87.2293 26.792C87.2293 26.0133 87.4213 25.4 87.8053 24.952C88.1999 24.5147 88.7173 24.296 89.3573 24.296C89.9866 24.296 90.4666 24.4773 90.7973 24.84C91.1386 25.2133 91.4319 25.7093 91.6773 26.328L91.9333 27.032C92.0506 27.384 92.2053 27.6667 92.3973 27.88C92.5893 28.0933 92.8026 28.2 93.0373 28.2C93.2719 28.2 93.4906 28.12 93.6933 27.96C93.8959 27.8 94.1253 27.4907 94.3813 27.032C94.6373 26.5733 94.9519 25.9013 95.3253 25.016Z" fill="#041728"/>
</svg>
