<svg width="106" height="31" viewBox="0 0 106 31" fill="none" xmlns="http://www.w3.org/2000/svg">
<path d="M12.092 0.0239983C13.884 0.0239983 15.5 0.311998 16.94 0.887999C18.3907 1.464 19.628 2.28 20.652 3.336C21.676 4.38133 22.46 5.62933 23.004 7.08C23.5587 8.53067 23.836 10.1413 23.836 11.912C23.836 13.576 23.564 15.1173 23.02 16.536C22.476 17.9547 21.6973 19.192 20.684 20.248C19.6813 21.304 18.4653 22.1253 17.036 22.712C15.6173 23.2987 14.028 23.592 12.268 23.592C10.476 23.592 8.85467 23.3093 7.404 22.744C5.964 22.168 4.732 21.352 3.708 20.296C2.69467 19.24 1.916 17.9867 1.372 16.536C0.828 15.0747 0.556 13.4533 0.556 11.672C0.556 10.0187 0.822667 8.48267 1.356 7.064C1.9 5.64533 2.67333 4.41333 3.676 3.368C4.68933 2.312 5.90533 1.49067 7.324 0.903999C8.75333 0.317332 10.3427 0.0239983 12.092 0.0239983ZM17.548 15.624C17.548 14.184 17.4253 12.7867 17.18 11.432C16.9347 10.0773 16.5933 8.81867 16.156 7.656C15.7293 6.49333 15.228 5.47467 14.652 4.6C14.0867 3.72533 13.4787 3.04266 12.828 2.552C12.188 2.06133 11.5267 1.816 10.844 1.816C10.0333 1.816 9.33467 2.056 8.748 2.536C8.16133 3.00533 7.708 3.69867 7.388 4.616C7.07867 5.52267 6.924 6.63733 6.924 7.96C6.924 9.4 7.04667 10.8027 7.292 12.168C7.53733 13.5227 7.87333 14.7867 8.3 15.96C8.73733 17.1227 9.23867 18.1413 9.804 19.016C10.3693 19.8907 10.9773 20.5787 11.628 21.08C12.2787 21.5707 12.94 21.816 13.612 21.816C14.444 21.816 15.148 21.576 15.724 21.096C16.3107 20.616 16.7587 19.9173 17.068 19C17.388 18.072 17.548 16.9467 17.548 15.624ZM12.604 17.464C12.5187 17.1333 12.508 16.8507 12.572 16.616C12.6467 16.3707 12.828 16.2107 13.116 16.136C13.4253 16.0507 13.6707 16.0933 13.852 16.264C14.044 16.424 14.1827 16.6587 14.268 16.968C14.684 18.344 15.132 19.4853 15.612 20.392C16.092 21.288 16.6093 21.9973 17.164 22.52C17.7293 23.032 18.348 23.3947 19.02 23.608C19.7027 23.8213 20.46 23.928 21.292 23.928C21.8573 23.928 22.284 23.8747 22.572 23.768C22.8707 23.6613 23.116 23.544 23.308 23.416C23.5 23.2987 23.7133 23.2187 23.948 23.176C24.1187 23.1547 24.2467 23.1867 24.332 23.272C24.428 23.3573 24.476 23.4907 24.476 23.672C24.4867 23.7893 24.4653 23.9227 24.412 24.072C24.3693 24.232 24.3053 24.4133 24.22 24.616L23.356 26.472C23.196 26.824 22.956 27.08 22.636 27.24C22.3267 27.4107 21.8787 27.496 21.292 27.496C20.3533 27.496 19.4627 27.3093 18.62 26.936C17.788 26.5733 17.004 25.992 16.268 25.192C15.532 24.392 14.8547 23.3573 14.236 22.088C13.628 20.8187 13.084 19.2773 12.604 17.464ZM32.5223 14.424C32.5223 12.856 32.7356 11.5547 33.1623 10.52C33.5996 9.47467 34.1703 8.696 34.8743 8.184C35.5783 7.672 36.3409 7.416 37.1623 7.416C38.2076 7.416 39.0076 7.72533 39.5623 8.344C40.1276 8.96267 40.4103 9.87467 40.4103 11.08C40.4103 12.232 40.1703 13.0853 39.6903 13.64C39.2209 14.1947 38.6129 14.472 37.8663 14.472C37.1089 14.472 36.5383 14.2747 36.1543 13.88C35.7703 13.4853 35.5729 12.9307 35.5623 12.216V11.592C35.5516 11.2933 35.4823 11.0693 35.3543 10.92C35.2263 10.76 35.0236 10.68 34.7463 10.68C34.4476 10.68 34.1703 10.808 33.9143 11.064C33.6689 11.3093 33.4663 11.6987 33.3063 12.232C33.1569 12.7547 33.0823 13.4427 33.0823 14.296L32.5223 14.424ZM32.7623 8.584L33.0823 12.248V20.248C33.0823 20.5573 33.1356 20.7867 33.2423 20.936C33.3489 21.0747 33.5676 21.176 33.8983 21.24L35.2263 21.48C35.4823 21.5227 35.6689 21.608 35.7863 21.736C35.9143 21.8533 35.9783 22.024 35.9783 22.248C35.9783 22.4827 35.8983 22.6693 35.7383 22.808C35.5783 22.936 35.3383 23 35.0183 23H26.8903C26.5596 23 26.3143 22.936 26.1543 22.808C26.0049 22.6693 25.9303 22.488 25.9303 22.264C25.9303 22.0933 25.9783 21.9493 26.0743 21.832C26.1703 21.704 26.3196 21.5973 26.5223 21.512L27.0503 21.368C27.2209 21.304 27.3436 21.192 27.4183 21.032C27.4929 20.872 27.5303 20.6213 27.5303 20.28V11.592C27.5303 11.3147 27.4876 11.1173 27.4023 11C27.3276 10.872 27.2049 10.7867 27.0343 10.744L26.3943 10.664C26.2023 10.6107 26.0636 10.5307 25.9783 10.424C25.8929 10.3173 25.8503 10.184 25.8503 10.024C25.8503 9.832 25.9089 9.67733 26.0263 9.56C26.1436 9.432 26.3516 9.31467 26.6503 9.208L30.0583 7.992C30.6449 7.768 31.0663 7.624 31.3223 7.56C31.5889 7.496 31.7969 7.464 31.9463 7.464C32.1809 7.464 32.3623 7.54933 32.4903 7.72C32.6183 7.89067 32.7089 8.17867 32.7623 8.584ZM48.9885 8.568V20.264C48.9885 20.616 49.0258 20.872 49.1005 21.032C49.1752 21.192 49.2978 21.304 49.4685 21.368L49.9805 21.512C50.1938 21.5973 50.3432 21.704 50.4285 21.832C50.5245 21.9493 50.5725 22.0933 50.5725 22.264C50.5725 22.488 50.4978 22.6693 50.3485 22.808C50.1992 22.936 49.9592 23 49.6285 23H42.7805C42.4605 23 42.2205 22.936 42.0605 22.808C41.9112 22.6693 41.8365 22.488 41.8365 22.264C41.8365 22.0933 41.8845 21.9493 41.9805 21.832C42.0765 21.704 42.2258 21.6027 42.4285 21.528L42.9565 21.368C43.1272 21.2933 43.2498 21.1813 43.3245 21.032C43.3992 20.872 43.4365 20.616 43.4365 20.264V11.56C43.4365 11.2827 43.3938 11.0853 43.3085 10.968C43.2338 10.84 43.1112 10.7547 42.9405 10.712L42.3165 10.648C42.1245 10.5947 41.9858 10.5147 41.9005 10.408C41.8152 10.3013 41.7725 10.1627 41.7725 9.992C41.7725 9.8 41.8258 9.64533 41.9325 9.528C42.0392 9.41067 42.2472 9.29333 42.5565 9.176L46.0445 7.912C46.5032 7.74133 46.8605 7.624 47.1165 7.56C47.3832 7.48533 47.6178 7.448 47.8205 7.448C48.2045 7.448 48.4925 7.55467 48.6845 7.768C48.8872 7.97067 48.9885 8.23733 48.9885 8.568ZM45.8845 5.576C44.8818 5.576 44.0818 5.32533 43.4845 4.824C42.8978 4.32267 42.6045 3.656 42.6045 2.824C42.6045 1.992 42.8978 1.33066 43.4845 0.839998C44.0818 0.349332 44.8818 0.103998 45.8845 0.103998C46.8978 0.103998 47.7032 0.354665 48.3005 0.855999C48.8978 1.34667 49.1965 2.00267 49.1965 2.824C49.1965 3.656 48.8978 4.32267 48.3005 4.824C47.7032 5.32533 46.8978 5.576 45.8845 5.576ZM59.442 21.816C60.1033 21.816 60.61 21.6613 60.962 21.352C61.314 21.032 61.49 20.632 61.49 20.152C61.49 19.8533 61.426 19.5813 61.298 19.336C61.17 19.08 60.914 18.8453 60.53 18.632C60.146 18.4187 59.5753 18.232 58.818 18.072C57.058 17.7307 55.7033 17.2933 54.754 16.76C53.8047 16.2267 53.154 15.608 52.802 14.904C52.45 14.2 52.274 13.4107 52.274 12.536C52.274 10.9467 52.8287 9.69867 53.938 8.792C55.0473 7.87467 56.658 7.416 58.77 7.416C59.5273 7.416 60.1353 7.48 60.594 7.608C61.0633 7.72533 61.4367 7.848 61.714 7.976C62.002 8.104 62.2527 8.168 62.466 8.168C62.7007 8.168 62.8927 8.104 63.042 7.976C63.202 7.848 63.3567 7.72533 63.506 7.608C63.666 7.48 63.8687 7.416 64.114 7.416C64.2847 7.416 64.4393 7.47467 64.578 7.592C64.7273 7.70933 64.8447 7.92267 64.93 8.232L65.858 11.464C65.9967 11.8907 66.0393 12.232 65.986 12.488C65.9327 12.744 65.7727 12.9253 65.506 13.032C65.2393 13.128 65.01 13.128 64.818 13.032C64.626 12.936 64.434 12.7547 64.242 12.488C63.7407 11.656 63.2127 10.984 62.658 10.472C62.114 9.96 61.5433 9.58667 60.946 9.352C60.3593 9.11733 59.746 9 59.106 9C58.306 9 57.7033 9.16533 57.298 9.496C56.8927 9.816 56.69 10.248 56.69 10.792C56.69 11.1227 56.7753 11.4213 56.946 11.688C57.1167 11.944 57.4473 12.184 57.938 12.408C58.4287 12.6213 59.1433 12.8293 60.082 13.032C61.522 13.3307 62.6633 13.7307 63.506 14.232C64.3487 14.7227 64.9513 15.32 65.314 16.024C65.6873 16.728 65.874 17.5493 65.874 18.488C65.874 19.4693 65.6127 20.3333 65.09 21.08C64.578 21.816 63.8687 22.392 62.962 22.808C62.0553 23.2133 61.0207 23.416 59.858 23.416C59.1327 23.416 58.5513 23.3467 58.114 23.208C57.6767 23.0693 57.314 22.9307 57.026 22.792C56.7487 22.6533 56.4927 22.584 56.258 22.584C56.0127 22.584 55.794 22.6533 55.602 22.792C55.4207 22.9307 55.2393 23.064 55.058 23.192C54.8767 23.3307 54.6793 23.4 54.466 23.4C54.2847 23.4 54.13 23.3307 54.002 23.192C53.874 23.064 53.778 22.84 53.714 22.52L53.154 19.48C53.0687 19.0427 53.058 18.712 53.122 18.488C53.186 18.264 53.3353 18.104 53.57 18.008C53.826 17.9013 54.05 17.9067 54.242 18.024C54.4447 18.1413 54.6473 18.3547 54.85 18.664C55.5753 19.8053 56.3273 20.616 57.106 21.096C57.8847 21.576 58.6633 21.816 59.442 21.816ZM75.09 8.568V10.216L75.314 10.664V27.72C75.314 28.072 75.3513 28.328 75.426 28.488C75.5113 28.648 75.6393 28.7547 75.81 28.808L76.434 28.984C76.6367 29.0587 76.786 29.1547 76.882 29.272C76.978 29.4 77.026 29.5493 77.026 29.72C77.026 29.9547 76.946 30.136 76.786 30.264C76.6367 30.392 76.3967 30.456 76.066 30.456H69.122C68.7913 30.456 68.5513 30.392 68.402 30.264C68.2527 30.136 68.178 29.9547 68.178 29.72C68.178 29.5493 68.226 29.4 68.322 29.272C68.418 29.1547 68.5673 29.0587 68.77 28.984L69.282 28.824C69.4527 28.76 69.5753 28.648 69.65 28.488C69.7247 28.328 69.762 28.072 69.762 27.72V11.56C69.762 11.272 69.7193 11.0693 69.634 10.952C69.5593 10.8347 69.4367 10.7547 69.266 10.712L68.642 10.632C68.45 10.5787 68.3113 10.4987 68.226 10.392C68.1407 10.2853 68.098 10.152 68.098 9.992C68.098 9.78933 68.1513 9.63467 68.258 9.528C68.3753 9.42133 68.5833 9.304 68.882 9.176L72.146 7.912C72.5727 7.74133 72.9193 7.624 73.186 7.56C73.4527 7.48533 73.6927 7.448 73.906 7.448C74.3113 7.448 74.61 7.55467 74.802 7.768C74.994 7.97067 75.09 8.23733 75.09 8.568ZM74.338 12.616L73.49 11.704C74.354 10.3493 75.3247 9.29867 76.402 8.552C77.4793 7.79467 78.6953 7.416 80.05 7.416C81.3087 7.416 82.4287 7.736 83.41 8.376C84.402 9.00533 85.1807 9.88533 85.746 11.016C86.3113 12.1467 86.594 13.4587 86.594 14.952C86.594 16.6587 86.2527 18.1467 85.57 19.416C84.8873 20.6853 83.954 21.672 82.77 22.376C81.5967 23.0693 80.2687 23.416 78.786 23.416C77.538 23.416 76.4447 23.144 75.506 22.6C74.578 22.0453 73.794 21.2293 73.154 20.152L74.45 19.192C74.93 19.9493 75.4313 20.504 75.954 20.856C76.4873 21.208 77.0687 21.384 77.698 21.384C78.306 21.384 78.85 21.1867 79.33 20.792C79.81 20.3973 80.1833 19.768 80.45 18.904C80.7167 18.04 80.85 16.9147 80.85 15.528C80.85 14.2373 80.7167 13.1867 80.45 12.376C80.1833 11.5653 79.8207 10.968 79.362 10.584C78.9033 10.2 78.3753 10.008 77.778 10.008C77.1273 10.008 76.514 10.2213 75.938 10.648C75.3727 11.064 74.8393 11.72 74.338 12.616ZM99.0893 20.088L96.1133 25.368L89.2973 10.696C89.1053 10.2587 88.9079 9.94933 88.7053 9.768C88.5026 9.576 88.2253 9.42133 87.8733 9.304C87.6706 9.22933 87.5266 9.13333 87.4413 9.016C87.3666 8.89867 87.3293 8.74933 87.3293 8.568C87.3293 8.33333 87.4093 8.152 87.5693 8.024C87.7293 7.896 87.9533 7.832 88.2413 7.832H96.1453C96.4226 7.832 96.6413 7.896 96.8013 8.024C96.9613 8.152 97.0413 8.33333 97.0413 8.568C97.0413 8.74933 96.9879 8.89867 96.8813 9.016C96.7853 9.13333 96.6199 9.224 96.3853 9.288L95.8253 9.416C95.3879 9.52267 95.1319 9.70933 95.0573 9.976C94.9826 10.2427 95.0786 10.696 95.3453 11.336L99.0893 20.088ZM95.8253 25.016L96.6093 23.128L97.2653 21.848L101.345 11.592C101.601 10.952 101.687 10.472 101.601 10.152C101.516 9.832 101.244 9.61333 100.785 9.496L100.177 9.336C99.9426 9.26133 99.7719 9.16 99.6653 9.032C99.5586 8.904 99.5053 8.74933 99.5053 8.568C99.5053 8.33333 99.5853 8.152 99.7453 8.024C99.9053 7.896 100.124 7.832 100.401 7.832H104.865C105.143 7.832 105.361 7.896 105.521 8.024C105.692 8.152 105.777 8.33333 105.777 8.568C105.777 8.728 105.729 8.86667 105.633 8.984C105.537 9.10133 105.377 9.21333 105.153 9.32C104.695 9.49067 104.332 9.71467 104.065 9.992C103.799 10.2693 103.537 10.728 103.281 11.368L97.9533 24.536C97.3026 26.1253 96.7106 27.3573 96.1773 28.232C95.6439 29.1067 95.0626 29.7147 94.4333 30.056C93.8146 30.3973 93.0413 30.568 92.1133 30.568C90.7693 30.568 89.7026 30.2053 88.9133 29.48C88.1239 28.7547 87.7293 27.8587 87.7293 26.792C87.7293 26.0133 87.9213 25.4 88.3053 24.952C88.6999 24.5147 89.2173 24.296 89.8573 24.296C90.4866 24.296 90.9666 24.4773 91.2973 24.84C91.6386 25.2133 91.9319 25.7093 92.1773 26.328L92.4333 27.032C92.5506 27.384 92.7053 27.6667 92.8973 27.88C93.0893 28.0933 93.3026 28.2 93.5373 28.2C93.7719 28.2 93.9906 28.12 94.1933 27.96C94.3959 27.8 94.6253 27.4907 94.8813 27.032C95.1373 26.5733 95.4519 25.9013 95.8253 25.016Z" fill="white"/>
</svg>
